
<svg width="32" height="32" viewBox="0 0 32 32" fill="none" xmlns="http://www.w3.org/2000/svg">
  <circle cx="16" cy="16" r="14" fill="#9b87f5" opacity="0.1"/>
  <path d="M21 11C21 13.761 18.761 16 16 16C13.239 16 11 13.761 11 11C11 8.239 13.239 6 16 6C18.761 6 21 8.239 21 11Z" stroke="#9b87f5" stroke-width="1.5"/>
  <path d="M11 21C11 23.761 8.761 26 6 26C3.239 26 1 23.761 1 21C1 18.239 3.239 16 6 16C8.761 16 11 18.239 11 21Z" stroke="#9b87f5" stroke-width="1.5"/>
  <path d="M31 21C31 23.761 28.761 26 26 26C23.239 26 21 23.761 21 21C21 18.239 23.239 16 26 16C28.761 16 31 18.239 31 21Z" stroke="#9b87f5" stroke-width="1.5"/>
  <path d="M16 16L26 21" stroke="#9b87f5" stroke-width="1.5"/>
  <path d="M16 16L6 21" stroke="#9b87f5" stroke-width="1.5"/>
</svg>
