
<svg width="200" height="200" viewBox="0 0 200 200" fill="none" xmlns="http://www.w3.org/2000/svg">
  <circle cx="100" cy="100" r="90" fill="#9b87f5" opacity="0.1"/>
  <path d="M130 70C130 85.464 117.464 98 102 98C86.536 98 74 85.464 74 70C74 54.536 86.536 42 102 42C117.464 42 130 54.536 130 70Z" stroke="#9b87f5" stroke-width="4"/>
  <path d="M70 130C70 145.464 57.464 158 42 158C26.536 158 14 145.464 14 130C14 114.536 26.536 102 42 102C57.464 102 70 114.536 70 130Z" stroke="#9b87f5" stroke-width="4"/>
  <path d="M186 130C186 145.464 173.464 158 158 158C142.536 158 130 145.464 130 130C130 114.536 142.536 102 158 102C173.464 102 186 114.536 186 130Z" stroke="#9b87f5" stroke-width="4"/>
  <path d="M100 100L158 130" stroke="#9b87f5" stroke-width="4"/>
  <path d="M100 100L42 130" stroke="#9b87f5" stroke-width="4"/>
</svg>
